<?xml version="1.0" standalone="no"?>
<!DOCTYPE svg PUBLIC "-//W3C//DTD SVG 20010904//EN"
 "http://www.w3.org/TR/2001/REC-SVG-20010904/DTD/svg10.dtd">
<svg version="1.0" xmlns="http://www.w3.org/2000/svg"
 width="272.000000pt" height="272.000000pt" viewBox="0 0 272.000000 272.000000"
 preserveAspectRatio="xMidYMid meet">
<metadata>
Created by potrace 1.14, written by Peter Selinger 2001-2017
</metadata>
<g transform="translate(0.000000,272.000000) scale(0.100000,-0.100000)"
fill="#000000" stroke="none">
<path d="M993 2505 c-68 -117 -123 -219 -123 -225 0 -7 27 -59 59 -114 57 -98
77 -133 151 -263 l35 -62 255 2 254 2 64 110 c36 61 91 155 123 211 33 55 59
107 59 115 0 8 -56 109 -123 224 l-122 210 -255 2 -255 1 -122 -213z"/>
<path d="M2051 2254 c-204 -53 -341 -228 -341 -439 0 -285 255 -496 535 -444
211 39 365 227 365 444 0 294 -276 511 -559 439z"/>
<path d="M440 2252 l-126 -3 -119 -207 c-66 -113 -121 -214 -123 -223 -2 -9
35 -81 81 -160 46 -79 101 -174 122 -211 22 -38 42 -68 45 -69 26 -4 494 -3
501 1 4 3 64 102 132 220 l124 214 -126 218 -125 218 -66 1 c-36 0 -94 1 -130
2 -36 1 -121 1 -190 -1z"/>
<path d="M1045 1678 c-38 -67 -79 -138 -90 -157 -11 -20 -35 -61 -53 -92 -17
-31 -32 -61 -32 -68 0 -6 44 -86 97 -178 53 -93 108 -189 122 -214 l25 -45
252 0 c155 1 256 5 262 11 8 9 128 215 190 325 14 25 31 54 38 65 8 11 14 26
14 33 0 8 -55 111 -122 228 l-123 214 -255 0 -255 0 -70 -122z"/>
<path d="M308 1302 c-24 -35 -121 -202 -176 -301 -13 -25 -31 -55 -38 -66 -21
-30 -18 -42 34 -129 26 -45 56 -97 67 -117 11 -20 45 -79 75 -132 l55 -97 255
0 255 1 123 213 c67 117 122 219 121 227 0 8 -55 108 -122 224 l-122 210 -252
2 -251 2 -24 -37z"/>
<path d="M1902 1327 c-22 -28 -242 -417 -242 -428 0 -6 55 -108 123 -225 l122
-214 255 0 255 0 75 132 c41 72 87 152 101 177 14 25 36 62 47 81 12 19 22 42
21 50 0 8 -55 109 -122 225 l-122 210 -252 2 c-188 2 -254 -1 -261 -10z"/>
<path d="M1080 820 c-21 -36 -78 -135 -127 -221 l-90 -155 110 -190 c61 -104
116 -201 124 -216 7 -14 19 -28 26 -30 6 -2 122 -4 256 -4 l244 1 55 95 c154
265 192 333 192 343 0 8 -198 361 -239 426 -7 11 -59 14 -261 15 l-252 1 -38
-65z"/>
</g>
</svg>
